<svg width="50" height="20" viewBox="0 0 50 20" fill="none" xmlns="http://www.w3.org/2000/svg">
<path d="M39.8767 8.92798L45.2512 18.693H49.9999L39.8859 0.349976L29.7258 18.693L34.3917 18.6837L39.8767 8.92798Z" fill="black"/>
<path d="M9.73499 1.69534e-05C4.36738 -0.00992617 1.68856e-05 4.3551 1.68856e-05 9.75422C-0.00988645 15.1434 4.33768 19.5283 9.71519 19.5283C15.0828 19.5382 19.4502 15.1732 19.4502 9.77411C19.4502 4.38493 15.1026 0.00996007 9.73499 1.69534e-05ZM9.71519 14.9744C6.85312 14.9744 4.53574 12.6377 4.53574 9.76416C4.54564 6.8906 6.86303 4.56391 9.72509 4.56391C12.5872 4.56391 14.9045 6.90054 14.9045 9.77411C14.9045 12.6477 12.5772 14.9744 9.71519 14.9744Z" fill="black"/>
<path d="M25.2354 14.4352L25.2538 0.515625H21.0113L21.0637 13.7052L20.9939 18.6917H27.9319L30.3614 14.4352H25.2354Z" fill="black"/>
</svg>
