<svg width="67" height="40" viewBox="0 0 67 40" fill="none" xmlns="http://www.w3.org/2000/svg">
<path d="M53.4078 19.8998L59.5911 31.2165H65.6726L53.4078 8.7998L41.1431 31.2165H47.2245L53.4078 19.8998Z" fill="black"/>
<path d="M33.278 25.9666L33.295 8.7666H27.927V31.2166H38.2722L41.143 25.9666H33.278Z" fill="black"/>
<path d="M12.8594 7.96681C10.4329 7.96351 8.05999 8.66645 6.04082 9.98668C4.02166 11.3069 2.44702 13.1851 1.51612 15.3836C0.585228 17.5821 0.339921 20.0022 0.811238 22.3375C1.28256 24.6728 2.44932 26.8185 4.16389 28.5031C5.87847 30.1876 8.06381 31.3354 10.4434 31.801C12.823 32.2667 15.2899 32.0294 17.532 31.1191C19.774 30.2088 21.6905 28.6665 23.039 26.6872C24.3874 24.708 25.1071 22.3808 25.1071 20.0001C25.1071 16.8116 23.8173 13.7534 21.5209 11.4972C19.2245 9.24097 16.1092 7.97122 12.8594 7.96681ZM12.8594 26.4835C11.5517 26.4868 10.2725 26.1093 9.18354 25.3989C8.09463 24.6886 7.24502 23.6772 6.74227 22.4928C6.23952 21.3084 6.10623 20.0043 6.35928 18.7456C6.61233 17.4868 7.24034 16.33 8.16381 15.4217C9.08727 14.5133 10.2647 13.8941 11.547 13.6426C12.8293 13.3911 14.1588 13.5185 15.3672 14.0087C16.5757 14.499 17.6087 15.3299 18.3356 16.3965C19.0624 17.463 19.4504 18.7172 19.4504 20.0001C19.4459 21.7212 18.7459 23.3702 17.504 24.5856C16.262 25.801 14.5795 26.4835 12.8254 26.4835H12.8594Z" fill="black"/>
</svg>
